<mxfile host="app.diagrams.net" agent="Mozilla/5.0 (Windows NT 10.0; Win64; x64; rv:136.0) Gecko/20100101 Firefox/136.0" version="26.2.5">
  <diagram name="Seite-1" id="qKrwxJvVgdG05iPy-x0I">
    <mxGraphModel dx="1532" dy="429" grid="1" gridSize="10" guides="1" tooltips="1" connect="1" arrows="1" fold="1" page="1" pageScale="1" pageWidth="827" pageHeight="1169" math="0" shadow="0">
      <root>
        <mxCell id="0" />
        <mxCell id="1" parent="0" />
        <mxCell id="pAw7oPJRyMl5xoIWGYts-15" value="" style="rounded=0;whiteSpace=wrap;html=1;strokeColor=none;fillColor=#d5e8d4;" vertex="1" parent="1">
          <mxGeometry x="-10" y="20" width="860" height="450" as="geometry" />
        </mxCell>
        <mxCell id="S85leJHSqdNUD-kr0iaN-5" style="edgeStyle=orthogonalEdgeStyle;rounded=0;orthogonalLoop=1;jettySize=auto;html=1;exitX=0;exitY=0.5;exitDx=0;exitDy=0;entryX=1;entryY=0.5;entryDx=0;entryDy=0;" parent="1" source="JUcrcEZGnIQnVvi8dNl7-5" target="S85leJHSqdNUD-kr0iaN-4" edge="1">
          <mxGeometry relative="1" as="geometry" />
        </mxCell>
        <mxCell id="JUcrcEZGnIQnVvi8dNl7-5" value="Datenbereinigung" style="html=1;whiteSpace=wrap;fillColor=#FFFFFF;strokeColor=#000000;strokeWidth=2;" parent="1" vertex="1">
          <mxGeometry x="610" y="223" width="110" height="50" as="geometry" />
        </mxCell>
        <mxCell id="XjMfMk2JlLKbFnYAxCPU-68" style="edgeStyle=orthogonalEdgeStyle;rounded=0;orthogonalLoop=1;jettySize=auto;html=1;exitX=1;exitY=0.5;exitDx=0;exitDy=0;entryX=0.5;entryY=0;entryDx=0;entryDy=0;" parent="1" source="XjMfMk2JlLKbFnYAxCPU-33" target="JUcrcEZGnIQnVvi8dNl7-5" edge="1">
          <mxGeometry relative="1" as="geometry" />
        </mxCell>
        <mxCell id="6xxraJHM975WFW2L7yMP-4" style="edgeStyle=orthogonalEdgeStyle;rounded=0;orthogonalLoop=1;jettySize=auto;html=1;exitX=1;exitY=0.5;exitDx=0;exitDy=0;entryX=0;entryY=0.5;entryDx=0;entryDy=0;" parent="1" source="6xxraJHM975WFW2L7yMP-3" target="XjMfMk2JlLKbFnYAxCPU-33" edge="1">
          <mxGeometry relative="1" as="geometry" />
        </mxCell>
        <mxCell id="6xxraJHM975WFW2L7yMP-3" value="&lt;div&gt;&lt;br&gt;&lt;/div&gt;&lt;div&gt;&lt;br&gt;&lt;/div&gt;&lt;div&gt;&lt;br&gt;&lt;/div&gt;&lt;div&gt;SWISSDOX (Nachrichtenartikel)&lt;/div&gt;" style="html=1;whiteSpace=wrap;fillColor=#FFFFFF;strokeColor=#000000;strokeWidth=2;" parent="1" vertex="1">
          <mxGeometry x="100" y="51" width="120" height="96" as="geometry" />
        </mxCell>
        <mxCell id="XjMfMk2JlLKbFnYAxCPU-28" value="Assets" style="childLayout=tableLayout;recursiveResize=0;fillColor=#66FFB3;shadow=1;strokeWidth=2;perimeterSpacing=0;strokeColor=#67AB9F;fillStyle=auto;deletable=1;swimlaneLine=1;rounded=0;labelBackgroundColor=none;" parent="1" vertex="1">
          <mxGeometry x="270" y="50" width="373" height="96" as="geometry" />
        </mxCell>
        <mxCell id="XjMfMk2JlLKbFnYAxCPU-29" style="shape=tableRow;horizontal=0;startSize=0;swimlaneHead=0;swimlaneBody=0;top=0;left=0;bottom=0;right=0;dropTarget=0;collapsible=0;recursiveResize=0;expand=0;fontStyle=0;strokeColor=inherit;fillColor=#ffffff;swimlaneLine=1;rounded=0;" parent="XjMfMk2JlLKbFnYAxCPU-28" vertex="1">
          <mxGeometry width="373" height="33" as="geometry" />
        </mxCell>
        <mxCell id="XjMfMk2JlLKbFnYAxCPU-30" value="&lt;font color=&quot;#000000&quot;&gt;&lt;span style=&quot;text-wrap-mode: wrap;&quot;&gt;Ereignisdatum&lt;/span&gt;&lt;/font&gt;" style="connectable=0;recursiveResize=0;strokeColor=inherit;fillColor=light-dark(#ffffff, #405e00);align=center;fontStyle=1;fontColor=#FFFFFF;html=1;swimlaneLine=1;rounded=0;" parent="XjMfMk2JlLKbFnYAxCPU-29" vertex="1">
          <mxGeometry width="93" height="33" as="geometry">
            <mxRectangle width="93" height="33" as="alternateBounds" />
          </mxGeometry>
        </mxCell>
        <mxCell id="XjMfMk2JlLKbFnYAxCPU-31" value="&lt;font color=&quot;#000000&quot;&gt;&lt;span style=&quot;text-wrap-mode: wrap;&quot;&gt;Header&lt;/span&gt;&lt;/font&gt;" style="connectable=0;recursiveResize=0;strokeColor=inherit;fillColor=#FFFFFF;align=center;fontStyle=1;fontColor=#FFFFFF;html=1;swimlaneLine=1;rounded=0;" parent="XjMfMk2JlLKbFnYAxCPU-29" vertex="1">
          <mxGeometry x="93" width="94" height="33" as="geometry">
            <mxRectangle width="94" height="33" as="alternateBounds" />
          </mxGeometry>
        </mxCell>
        <mxCell id="XjMfMk2JlLKbFnYAxCPU-32" value="&lt;font style=&quot;color: rgb(0, 0, 0);&quot;&gt;Content&lt;/font&gt;" style="connectable=0;recursiveResize=0;strokeColor=inherit;fillColor=#FFFFFF;align=center;fontStyle=1;fontColor=#FFFFFF;html=1;swimlaneLine=1;rounded=0;" parent="XjMfMk2JlLKbFnYAxCPU-29" vertex="1">
          <mxGeometry x="187" width="93" height="33" as="geometry">
            <mxRectangle width="93" height="33" as="alternateBounds" />
          </mxGeometry>
        </mxCell>
        <mxCell id="S85leJHSqdNUD-kr0iaN-1" value="&lt;span style=&quot;color: rgb(0, 0, 0);&quot;&gt;Quelle&lt;/span&gt;" style="connectable=0;recursiveResize=0;strokeColor=inherit;fillColor=#FFFFFF;align=center;fontStyle=1;fontColor=#FFFFFF;html=1;swimlaneLine=1;rounded=0;" parent="XjMfMk2JlLKbFnYAxCPU-29" vertex="1">
          <mxGeometry x="280" width="93" height="33" as="geometry">
            <mxRectangle width="93" height="33" as="alternateBounds" />
          </mxGeometry>
        </mxCell>
        <mxCell id="XjMfMk2JlLKbFnYAxCPU-33" value="" style="shape=tableRow;horizontal=0;startSize=0;swimlaneHead=0;swimlaneBody=0;top=0;left=0;bottom=0;right=0;dropTarget=0;collapsible=0;recursiveResize=0;expand=0;fontStyle=0;strokeColor=inherit;fillColor=#ffffff;swimlaneLine=1;rounded=0;" parent="XjMfMk2JlLKbFnYAxCPU-28" vertex="1">
          <mxGeometry y="33" width="373" height="32" as="geometry" />
        </mxCell>
        <mxCell id="XjMfMk2JlLKbFnYAxCPU-34" value="2020-03-01" style="connectable=0;recursiveResize=0;strokeColor=inherit;fillColor=inherit;align=center;whiteSpace=wrap;html=1;swimlaneLine=1;rounded=0;" parent="XjMfMk2JlLKbFnYAxCPU-33" vertex="1">
          <mxGeometry width="93" height="32" as="geometry">
            <mxRectangle width="93" height="32" as="alternateBounds" />
          </mxGeometry>
        </mxCell>
        <mxCell id="XjMfMk2JlLKbFnYAxCPU-35" value="COVID-19 Outbreak" style="connectable=0;recursiveResize=0;strokeColor=inherit;fillColor=inherit;align=center;whiteSpace=wrap;html=1;swimlaneLine=1;rounded=0;" parent="XjMfMk2JlLKbFnYAxCPU-33" vertex="1">
          <mxGeometry x="93" width="94" height="32" as="geometry">
            <mxRectangle width="94" height="32" as="alternateBounds" />
          </mxGeometry>
        </mxCell>
        <mxCell id="XjMfMk2JlLKbFnYAxCPU-36" value="Erster grosser Ausbruch weltwe" style="connectable=0;recursiveResize=0;strokeColor=inherit;fillColor=inherit;align=center;whiteSpace=wrap;html=1;swimlaneLine=1;rounded=0;" parent="XjMfMk2JlLKbFnYAxCPU-33" vertex="1">
          <mxGeometry x="187" width="93" height="32" as="geometry">
            <mxRectangle width="93" height="32" as="alternateBounds" />
          </mxGeometry>
        </mxCell>
        <mxCell id="S85leJHSqdNUD-kr0iaN-2" value="20 Minuten" style="connectable=0;recursiveResize=0;strokeColor=inherit;fillColor=inherit;align=center;whiteSpace=wrap;html=1;swimlaneLine=1;rounded=0;" parent="XjMfMk2JlLKbFnYAxCPU-33" vertex="1">
          <mxGeometry x="280" width="93" height="32" as="geometry">
            <mxRectangle width="93" height="32" as="alternateBounds" />
          </mxGeometry>
        </mxCell>
        <mxCell id="XjMfMk2JlLKbFnYAxCPU-37" value="" style="shape=tableRow;horizontal=0;startSize=0;swimlaneHead=0;swimlaneBody=0;top=0;left=0;bottom=0;right=0;dropTarget=0;collapsible=0;recursiveResize=0;expand=0;fontStyle=1;strokeColor=inherit;fillColor=#EAF2D3;swimlaneLine=1;rounded=0;" parent="XjMfMk2JlLKbFnYAxCPU-28" vertex="1">
          <mxGeometry y="65" width="373" height="31" as="geometry" />
        </mxCell>
        <mxCell id="XjMfMk2JlLKbFnYAxCPU-38" value="2020-11-02" style="connectable=0;recursiveResize=0;strokeColor=inherit;fillColor=#9AC7BF;whiteSpace=wrap;html=1;swimlaneLine=1;rounded=0;" parent="XjMfMk2JlLKbFnYAxCPU-37" vertex="1">
          <mxGeometry width="93" height="31" as="geometry">
            <mxRectangle width="93" height="31" as="alternateBounds" />
          </mxGeometry>
        </mxCell>
        <mxCell id="XjMfMk2JlLKbFnYAxCPU-39" value="US Presidential Election" style="connectable=0;recursiveResize=0;strokeColor=inherit;fillColor=#9AC7BF;whiteSpace=wrap;html=1;swimlaneLine=1;rounded=0;" parent="XjMfMk2JlLKbFnYAxCPU-37" vertex="1">
          <mxGeometry x="93" width="94" height="31" as="geometry">
            <mxRectangle width="94" height="31" as="alternateBounds" />
          </mxGeometry>
        </mxCell>
        <mxCell id="XjMfMk2JlLKbFnYAxCPU-40" value="Biden vs. Trump:&lt;br&gt;Debatten" style="connectable=0;recursiveResize=0;strokeColor=inherit;fillColor=#9AC7BF;whiteSpace=wrap;html=1;swimlaneLine=1;rounded=0;" parent="XjMfMk2JlLKbFnYAxCPU-37" vertex="1">
          <mxGeometry x="187" width="93" height="31" as="geometry">
            <mxRectangle width="93" height="31" as="alternateBounds" />
          </mxGeometry>
        </mxCell>
        <mxCell id="S85leJHSqdNUD-kr0iaN-3" value="Basler Zeitung" style="connectable=0;recursiveResize=0;strokeColor=inherit;fillColor=#9AC7BF;whiteSpace=wrap;html=1;swimlaneLine=1;rounded=0;" parent="XjMfMk2JlLKbFnYAxCPU-37" vertex="1">
          <mxGeometry x="280" width="93" height="31" as="geometry">
            <mxRectangle width="93" height="31" as="alternateBounds" />
          </mxGeometry>
        </mxCell>
        <mxCell id="S85leJHSqdNUD-kr0iaN-7" style="edgeStyle=orthogonalEdgeStyle;rounded=0;orthogonalLoop=1;jettySize=auto;html=1;exitX=0;exitY=0.5;exitDx=0;exitDy=0;entryX=1;entryY=0.25;entryDx=0;entryDy=0;" parent="1" source="S85leJHSqdNUD-kr0iaN-4" target="pAw7oPJRyMl5xoIWGYts-2" edge="1">
          <mxGeometry relative="1" as="geometry" />
        </mxCell>
        <mxCell id="S85leJHSqdNUD-kr0iaN-4" value="Textvektorisierung mittels&lt;br&gt;all-MiniLM-L12-v2" style="html=1;whiteSpace=wrap;fillColor=#FFFFFF;strokeColor=#000000;strokeWidth=2;" parent="1" vertex="1">
          <mxGeometry x="369" y="223" width="110" height="50" as="geometry" />
        </mxCell>
        <mxCell id="S85leJHSqdNUD-kr0iaN-10" style="edgeStyle=orthogonalEdgeStyle;rounded=0;orthogonalLoop=1;jettySize=auto;html=1;entryX=0.5;entryY=0;entryDx=0;entryDy=0;" parent="1" source="pAw7oPJRyMl5xoIWGYts-6" target="S85leJHSqdNUD-kr0iaN-9" edge="1">
          <mxGeometry relative="1" as="geometry" />
        </mxCell>
        <mxCell id="S85leJHSqdNUD-kr0iaN-6" value="Clustering mit DBSCAN" style="html=1;whiteSpace=wrap;fillColor=#FFFFFF;strokeColor=#000000;strokeWidth=0;" parent="1" vertex="1">
          <mxGeometry x="110" y="171" width="110" height="50" as="geometry" />
        </mxCell>
        <mxCell id="S85leJHSqdNUD-kr0iaN-9" value="&lt;strong&gt;Artikel nach Themen geclustered&lt;/strong&gt;" style="html=1;whiteSpace=wrap;fillColor=#FFFFFF;strokeColor=#000000;strokeWidth=2;align=center;fontStyle=0;fontFamily=Helvetica;fontColor=default;fontSize=12;" parent="1" vertex="1">
          <mxGeometry x="110" y="370" width="110" height="50" as="geometry" />
        </mxCell>
        <mxCell id="pAw7oPJRyMl5xoIWGYts-2" value="" style="shape=image;imageAspect=0;aspect=fixed;verticalLabelPosition=bottom;verticalAlign=top;image=data:image/jpeg,/9j/4AAQSkZJRgABAQEBLAEsAAD/4Q2qRXhpZgAASUkqAAgAAAAAAA4AAAAJAP4ABAABAAAAAQAAAAABBAABAAAAAAEAAAEBBAABAAAAqgAAAAIBAwADAAAAgAAAAAMBAwABAAAABgAAAAYBAwABAAAABgAAABUBAwABAAAAAwAAAAECBAABAAAAhgAAAAICBAABAAAAHA0AAAAAAAAIAAgACAD/2P/gABBKRklGAAEBAAABAAEAAP/bAEMACAYGBwYFCAcHBwkJCAoMFA0MCwsMGRITDxQdGh8eHRocHCAkLicgIiwjHBwoNyksMDE0NDQfJzk9ODI8LjM0Mv/bAEMBCQkJDAsMGA0NGDIhHCEyMjIyMjIyMjIyMjIyMjIyMjIyMjIyMjIyMjIyMjIyMjIyMjIyMjIyMjIyMjIyMjIyMv/AABEIAKoBAAMBIgACEQEDEQH/xAAfAAABBQEBAQEBAQAAAAAAAAAAAQIDBAUGBwgJCgv/xAC1EAACAQMDAgQDBQUEBAAAAX0BAgMABBEFEiExQQYTUWEHInEUMoGRoQgjQrHBFVLR8CQzYnKCCQoWFxgZGiUmJygpKjQ1Njc4OTpDREVGR0hJSlNUVVZXWFlaY2RlZmdoaWpzdHV2d3h5eoOEhYaHiImKkpOUlZaXmJmaoqOkpaanqKmqsrO0tba3uLm6wsPExcbHyMnK0tPU1dbX2Nna4eLj5OXm5+jp6vHy8/T19vf4+fr/xAAfAQADAQEBAQEBAQEBAAAAAAAAAQIDBAUGBwgJCgv/xAC1EQACAQIEBAMEBwUEBAABAncAAQIDEQQFITEGEkFRB2FxEyIygQgUQpGhscEJIzNS8BVictEKFiQ04SXxFxgZGiYnKCkqNTY3ODk6Q0RFRkdISUpTVFVWV1hZWmNkZWZnaGlqc3R1dnd4eXqCg4SFhoeIiYqSk5SVlpeYmZqio6Slpqeoqaqys7S1tre4ubrCw8TFxsfIycrS09TV1tfY2dri4+Tl5ufo6ery8/T19vf4+fr/2gAMAwEAAhEDEQA/APf6KKKACiiigAooooAKKKKACiiigAooooAKKKKACiiigAooooAKKKKACiiigAooooAKKKKACiiigAooooAKKKKACiiigAooooAKKKKACiiigAooooAKKKKACiiigAooooAKKKKAAkDqaTcv94fnXl/xrv7yx0PT/sl1NBvuCGMTlSRtPcV5lf2mtWGmG9Ov3jgBTsErjr77qlyS0ZrTozqJyirpbn09RXNfD+4mu/AulTXEryytCNzuck89zXS1RkFFFFABRRRQAUUUUAFFFFABRRRQAUUUUAFFFFABRRRQAUUUUAFFFFABRRRQAUUUUAFFFFABRRXO6j458N6TfSWV7qkMVxHw6E8r35oAw/il4U1PxVpNnDpaRvLDMXZXfbkYIrzy4+HXj66tTbTRQNEcfL569q9esPHfhrU72Kzs9UhluJThEBwWPtXR0mk9y4zlFNRdrmH4O0q40Twnp+nXe3z4ItrhTkA/WtyisbWfFeiaBNHDqd/FbySDcqt1I9aZBs0VyqfEfwnJIqLrEBZjgda6lWDqGU5BGQaAFooooAKKKKACiiigAooooAKKKKACiiigAooooAKRmVELOwVQMkk8ClrjfiZYazqPhGaHRpGDht00afekTuBQBy3iL4zLY6+tvpNrHd2EDYuZjnL+uw9B9T1r0rRdbsdf0yK/sJhJDIPxU+hHY14N4W1Pw7aeGLqC+iVZwCLhJBlpfQD/AArd+DVhq39rXN/bmSHQ2DL5chyHbPGPcetY06rnKUXG1vxLlBJJ33PbaKKK2ICiiigAooooAK+cfEdpaXvxU1uK8AMXmE8tt5wvevo6vO/EHwj0zX9cutUfULqCS4bc6IAQDgDj8qUldWNKU1Cak1e3Q8y0Wzs7L4maFHZACMzIThy3OTX0jXnOh/CDTNE1u11NdRupntn3qjAAE9s16NRFWVgqzU5uSVk+gV4b8YIo5vHGkxTAGNogGyccbq9yrjPGPw6sfGF9Bd3F5PbyRJs/dgEEfjQyYuzTZ4b4h03TrFbVrFVVmkw2JC3H519O2P8Ax4W3/XJf5CvM4/gbpKSo7areOFIJXaozXqMUYiiSNc7UUKM+gpRi4qzdzSvUjUm5RjyrsPoooqjEKKKKACiiigAooooAKKKKACiiigAooooAKKKKAOA8QfCfRdd11dSDNah23XEUQAEp9fYnvXcWVlbafZxWlpCkMEShURBgAVPXnfxE+IaeH420rSmEuryjbhRnyc9D/vegoA9Eorwfw14y17wTqiW3iU3FxY3eHLyOXaMnqQT+or3K0uoL61iubaVZYZVDI6nIINKMlJXi9BtNOzJqKKKYgrP1zVU0TRLvUpEMi20RkKDqcdq0K5v4gf8AIha1/wBer/yoA4AfHN2GV8PuR6ib/wCtXbeBfG6eNLS6lFm1q9u4UqX3A5HrXheieIbKw0ZbWbzPMG7ouRya9E+BRzZawfWZf5VMZNtpo3q0oQhGUZXb38j12jtRQelUYHkl/wDGsWup3VpDojyrBK0e7zcE4OM4x7Vq+D/imvijxCmkyaW9q7ozK3mbuVGcHgdq8mtdXttJ8Sa0bnf+8uXA2jPR2rc+HV3Ff/FmC5h3eW0cmMjB+4ahSfNax0SpQVFTUtX0PoOiiirOcKKKKACiiigAooooAKKKKACiiigAooooAKKKKACiiigArxX4heD73w/rjeL9IUzRmQy3EbDcUJ6n6fyr1zVNY0/RbQ3WpXcdtACBvc96sRyW99arJG0c9vKmQwIZXU/zFJpNWYJ21R89zXmpfEq/tdI0y08uFcPPI4yI/Uk+noO9e7eHdEh8O6HbaZA7OkK43N1J71JpWh6ZoiSJp1lFbLI25xGuMmtCop04048sFoVKTk7sKKKK0JCmTQxXELwzRrJG42srDIIp9FAGF/whfhr/AKAll/36FaOn6VYaTE0Wn2kNsjHLLEoXJq5RQAUUUUAY0/hLw9czvNNo9m8sjFmYxDJJ71NYeHdH0ucz2Om21vKRt3xxgHH1rTooAKKKKACiiigAooooAKKKKACiiigAooooAKKKKACiiigAqnq2pQ6PpVzqFwGMVvGXYIMkgelXKZLFHPE0UqB0YYZWGQRQB8+ST6l8UdbluryY22m2+RHChzt9OO59TWj4P8V3/gXX18N6qTcWEkgWJkOTHuOAQPT1FS+LvBOqeDtVbWfC6yPZzcPAoLGMntjuvp6Vv/Dz4eyWsg8QeIVMupSnfHHJz5We5/2v5VjGNX2rbfultx5EktT1GiiitiAooooAKKKKACiiigAooooAKKKKACiiigAooooAKKKKACiiigAooooAKKKKACiiigAooooAKKKKADGaKKKACiiigAormPEXj7QPDFwLe/uibgjPlRKWYD3x0q74e8V6R4ot2l0u6Emz76EbWX6g0AbVVtQvoNNsJ725fZDChd29AKs1h+MNKm1rwpqOn25xNNEQnufSgDzGf406xJcyXFjoUTabG2MuWLEe7Dgfka9Q8LeJbTxVokWpWgZAx2yRt1jYdQf8a+e7bW7nRdMl0G50yQXilkVSME7ieo79a9g+Evh+90Pwq7X8bRS3UvmiJuqrjAyOxNaTjBJcrv3M4Sm2+ZW7HfUUUVmaBXlfin4s3VlrculeH9OjvJICRLLJkjI6gAY6eua9TIyCK+c9SS88B+LdSN9ZvLb3UjPHMONwJJGD+PIq6ai5JSdkRUclFuKuz1XwH8Q4vFzzWV1bC01KBdzRA5V1zgkZ54PUe9dxXivwr0nUNS8YXPieW2a2s/LZUyMb2bA49RjnNe1VMkk9CottahRRRSGFFFFABRRRQAUUUUAFFFFABRRRQAUUUUAFFFFABRRRQAUh6UtFAHzbc/ZIfiHrX/CQgF/Ofy/OGVxnj/x3GK1vhoEf4pSNpIIsRC5k2/d24/8AisYr1nxD4G0DxPKk2pWZM6jAljco2PQ46/jVzQPDOkeGbRrfSrRYVY5didzOfcnk1o6l4KFjNU7Tc7mvRRXjXjvxnr194qm8N6BcG0jt+JZkO12bHPzdgM9qiMXJ2Rbairs9ga3geQSNFGXHRiozUteMeB/GWvab4rh8Oa/cteR3A/dSyHcynBx83Ug4PWvZ6JJxdmCakro4X4oeLbrwtoMf2A7by6fy0kxnYMZJHvXljav408NiHWJNYmmBYGSKSQupz2IP9K9f+IPg4+L9DWCF1ju4G8yEt0JxjBrzJPh3441h4dO1Mxw2UbDMpdTkDvxyfxq4OHK+bfoRNT5ly7dT2zRdSTWNFs9RRdq3ESybfTParcsEUwxLGjj0ZQag0ywi0vTLawg/1UEYjXPfAq3WZoIqqihVAAHQAUtFFABRRRQAUUUUAFFFFABRRRQAUUUUAFFFFABRRRQAUUUUAFFFFABRRRQAUUUUAFeQ+OfAeuR+KJPEXhxVnacZlgyAQ2MHrwQa9eopptO6E0mrM8f8E+A9en8UR+IfEiCBoP8AVQ7gSTjA4GcDk17BRRQ227sEklZBRRRSGFFFFABRRRQAUUUUAFFFFABRRRQAUUUUAFFFFABRRRQAUUUUAFFFFABRRRQAUUUUAFFFFABRRRQAUUUUAFFFFABRRRQAUUUUAFFFFABRRRQAUUUUAFFFFAH/2f/bAEMAAwICAwICAwMDAwQDAwQFCAUFBAQFCgcHBggMCgwMCwoLCw0OEhANDhEOCwsQFhARExQVFRUMDxcYFhQYEhQVFP/bAEMBAwQEBQQFCQUFCRQNCw0UFBQUFBQUFBQUFBQUFBQUFBQUFBQUFBQUFBQUFBQUFBQUFBQUFBQUFBQUFBQUFBQUFP/CABEIAYMCRAMBEQACEQEDEQH/xAAdAAEAAgIDAQEAAAAAAAAAAAAAAQgGBwMEBQIJ/8QAGwEBAAIDAQEAAAAAAAAAAAAAAAEFAwQGAgf/2gAMAwEAAhADEAAAAbUgAAAAAAAAAAAAAAAAAAAAAAAAAAAAAAAAAAAAAAAAAAAAAAAAAAAAAAAAAAAAAAAAAAAAAAAAAAAAAAAAAAAAAAAAAAAAAAAAAAAAAAAAAAAAAAAAAAAAAAAAAAAAAAAAAAAAAAAAAAAAAAAAAAAAAAAAAAAAAAAAAAAAAAAAAAAAAAAAAAAAAAAAAAAAAAAAAAAAAAAAAAAAAAAAAAAAAAAAAAAAAAAAAAAAAAAAAAAAAAEHCdUHKdwAAAAAAAAAAAAAAAAAAAAAAAAAAAAAAAAAEFNzXAOwX/OyAAAAAAAAAAAAAAAAAAAAAAAAAAAAAAAAAQUsO9XdnkWvb6TuPmv6CS7gAAAAAAAAAAAAAAAAAAAAAAAAAAAAAAAABBSw6mn0PrYt/XFjx/6BndAAAAAAAAAAAAAAAAAAAAAAAAAAAAAAAAAIK4mAg7qLdp5QAAAAAAAAAAAAAAAAAAAAAAAAAAAAAAAAAQSCASAAAAAAAAAAAAAAAAAAAAAAAAAAAAAAACASD5JJAAIJIBIAAAAAAAAAAAAAAAAAABBIAAAAAAAAIKdGJkmTIuUmQAa7KpIJFlDboAAAAAAAAAAAAAAAAAAPg0WbTMkAAAAAAAABQ4yiu7H6icOsuNvwAAahKxYt7ZFd2WA73Kb12KrfgAAAAAAAAAAAAAAAAAB8lYTSvifc9xckyQkAAAAAAAFDjL6ztvt6waz4a/CQANRFY8W/tCs7jXdhx+8dio34AAAAAAAAAAAAAAAAAAVuNJ6/ux3E32p+ircXvNC7p6QAAAAAABBS4xIGTl2AADWxUpEBNmzcZIAAAAAAAAAAAAAAAABBpUrJ49b54+51X0Nb6FlrXIOyAAAAAAAQCQQSAAQCSASAAAAAAAAAAAAAAAAAAQaQKwmfFwD0AAAAAACCQAAACCQAAAAAAAAAAAAAAAAAAAAACDXZmx3wAAAAAAfBVY84GcFhQADDCuwIN8mxAAAAAAAAAAAAAAAAAAAAAADyTFTPyQAAAAdY/PqGf6HWebk0+xuc/dkAA08Vhx7eb6PT4du87YDLX75AAAAAAAAAAAAAAAAAAAAAB5JTiIxCZtWbgJAAAAOsfnybupvpfgZqvxrPiLsgAGnitmCz2/U/QdV2nDbw2aTfIAAAAAAAAAAAAAAAAAAAAB55TM5Knc2PSbuiuvp7Veo24AAAAcB+fqOGPRGeyukAAamKkH1Ewizkt5gAAAAAAAAAAAAAAAAAAAAHhFJUZ3z1nsel3q5dtQ2Dy+d/EgAAAHinVB6R6QABxngEA945gAAAAAAAAAAAAAAAAAAAACDEimx5vid8+4scfRBIAAAAAAAAAAAAAAAAAAAAAAAAAAAAAAAAIMTNem7T6BBIAAAAAAAAAAAAAAAAAAAAAAAAAAAAAAAOE8o9sEEgAAAAAAAAAAAAAAAAAAAAAAAAAAAAAAAAHAVMNdFxDOiQAAAAAAAAAAAAAAAAAAAAAAAAAAAAAAAADgKmGE6WbO6nd1r0VZcWWdAAAAAAAAAAAAAAAAAAAAAAAAAAAAAAAAAGKlITcnK22f027WfvKDcufHZckAAAAAAAAAAAAAAAAAAAAAAAAAAAAAAAAEGrypUT39fJnuzitkdgAAAAAAAAAAAAAAAAAAAAAAAAAAAAAAAAAEGrzVxZo7AAAAAAAAAAAAAAAAAAAAAAAAAAAAAAAAAAABBIAAAAAABxGEntGQEgAAA4jCT2jICQAAAAAAAAAAAAAAAAAAAAQSAACCQAAQU/Nde8fz5926idnAAAEFQka3yePnH7twnaAAAAAAAAAAAAAAAAAAAAAAAAIJAAAPCKGzFie24jXlLd+pRXttCQAAeGUMRYbteKwGot/Rob+2pIAAAAAAAAAAAAAAAAAAAAAAIBiJhZso9kAHCUVh3LOs8TU3LB4M+/AAADhKLnZsqzxdTcsBgz7/AAAAAAAAAAAAAAAAAAAAAAABgBTaY9Xb0/nT3bxnpAAxs0oZIboPsHya+OsbJPsGOGkzIjdR9gAAAAAAAAAAAAAAAAAAAAAAArsars6vcXVcrXnh+4t3izbGAAIJAIK8lf/eP79RuLFltCSCCQAAAAAAAAAAAAAAAAAAAAAAAAa8Kdz59fc1Ovpbl5E+oAQfJ9EgEFGjOOo5f0c+vp7j+wv7KQAAAAAAAAAAAAAAAAAAAAAAAAACDCjBjaB7xIOkVNNcG2i05yggrAak2Nbl9+c81Nu3JIAAAAAAAAAAAAAAAAAAAAAAAAAAAAANKlc9rU250vNaX5XqrZYs20ADgNQnAbgO2SAAAAAAAAAAAAAAAAAAAAAAAAAAAAADUBWHPr7O6Cg1PzfR3C8ZNigAAAAAAAAAAAAAAAAAAAAAAAAAAAAAAAAA4itprk20WCJAAAAAAAAAAAAAAAAAAAAAAAAAAAAAAAAAAIBIAAAAAAAAAAAAAAAAAAAAAAAAAAAAAAAAAAAAAAAAAAAAAAAAAAAAAAAAAAAAAAAAAAAAAAAAAAAAAAAAAAAAAAAAAAAAAAAAAAAAAAAAAAAAAAAAAAAAAAAAAAAAAAAAAAAAAAAAAAAAAAAAAAAAAAAAAAAAAAAAAAAAAAAAAAAAAAAAAAAAAAAAAAAAAAAAAAAAAAAB//xAAwEAABBAECAwYGAgMBAAAAAAAEAgMFBgEAByBQYBARFRYwNBITFBc1NiFAIzGAcP/aAAgBAQABBQL/ALgdfbZx4iJrxETTZjDyuhdwC3X7N2MPrGeGV8wfoS8/tdbaQsEkdrA2NB+z6EvP7VETDUeM9ZB3GdBez6EudIkDpnyBO6+387oTbqYeJaR8tr/w3v8AR7+e2i0SL034/Ja8fk9V20yQ8xjhvcq/DwPmCTzrx+T14/J625myZeM5MpWE4l90GhTYKeFnw/6U/wDnYqHFJAk4YQcGH/L8O6H63GMpIO8AC1NCtiG7Te05KpWE4vF4zIZQyt3EFOEwBsFOjz4P9Gf/ADkRIjMR8rJDPR8P+X4d0P1uJdSzIeLh6nSGyDtpvacl3HtL2CY6Pdky4yJYixrRW/oNQc4TAGxpqZED+haoI4Wc8OL14cXquQRxczw3+NIlK/mNLxrw0vXhpettIkmNjOS3ymKldNOuhPxNpGNDsE+uYfqlTfsRIw6BB+g+7V3o/iOs4zjNTqb1kJBBZjhehpShxUsWECxHDestXwpP3Nk1k/cqb19ypvVSv5klLcNsnc16I+5U3r7lTevuTN6pVlcscdy2SlB4gSGvEZNlemT7fP8AtitNOsSsKiPGpX7Tw7o/rseNgwvyszqUCwAVtN7HlknJMRIdms5FkLQ4ptVKuyZhPpE+3z/sNafpLIrGQKV+08O6P67CfxJ/MTqxZ75Hab2PKzzWo4SzWYixmVyuqlXZ2rtHj/5Q36LcPHW/Rex8TT7Kx3uyisLetHDuYwt6t9u1LK0RnK5uMTMxcvEkQptWs3yMTE0zDjmmOHlbdVZ8Nz0iIUAtzy3Fa8txWhY0UHiWhLifLkVry3Fa8txWmmUMN8ssdcGsQctEkQxrr639UejfM13dDWKuDWISC20ZjzMY7sdBuvIYbj5sGVV0M86hhu5XRydcj5B+KLqtpZsYfQjzyB27pc3Jx6GhnZgmwVFLLAB78WXVrUxYxOg7PGuy8IQM4I/T5phTBx7McPJF4OO2whyfruhLjTW59p1t0IiRlyZXNMpi51xllDDXQtxprc+zX9ty3TWWEDtdLrcS0gi8wgzkdYI+W9JbiWkkXiEFcjrBHS3Os6ulrdmzmRXn8IccGeo1nzYAOPOrrbHJoxkV5/SFuCvUSzqnwecTzimYXH85DYQOPcGG0r2xcUiycc64pmF0AwgcS4Dtpztk4pFk5jMWuNg8o3SilORkwHMM8DzaXmp2HdhJIKyFBsnHvSL22EAsZvjebS81PQzsFJAWQkFg6QekXtr4NbCOYXOw5r8Qtbpb7sGawzDTBEKdGmokgeCbr4c8OTtO58yG2xDDcSnCE9nf3akr7DxjgO4cMa4leFp7JqAEnxydp3PmQ+2AgbqUYRjmG7XfqqJRmT0f8GDNvvi8q+luPaXGnWBnSlkBvCK27tDoxvNrvX1T8RnDorzs8c81FRREwZFgojI/g+LHFalKXY6olGI2wobVFRqlJkebzdPjZ5SNqQMORMGFBs9phbQAtivp0s9gl5K6xuCUA824l1HbuTXXBzgZIiNWfLkyWtv6+uTlue7pHLYh4gDEicqABUycN9GXtyaoytdrzKCG5Da+NJWFtWAysURoFjnu5kaoyCjjVRxarYHhkl9Rb9CjVxld6EcbS63Yds30PYps1ldZ22Uw/wB3d0N3f9J//8QALxEAAgEDAgYBAgQHAAAAAAAAAQIDAAQRBRITITAxUGAiMkFhcICQFBVAQlFx0f/aAAgBAwEBPwH9nPR40eAlh9/+VPDHwm+I7ekafqMdpFscfepdZhdCoU8/002Wn288Cu686vdPt4bdnRefQsolmuFR+1HSrTOdlalBHbT8OMcvEgFu39LYXlvFbqjvg1fXkEtuyI2T0LB1iuFdzyo39r24grVJknuN8Zzy8QiF220kYjGKuLfZ8l7ejhivMVHcKy86mmMhx9vzsi0aN41bd3q+01LWPeGz0LSH+ImEZPev5JGP7zV9bC0m4YOfPWzDgp/qtYINuMf56GmcrtM1uU1rBzdZ/Dx8EBkOW7VNbhl+NEEcj1cms9DtzrPkLafHwapJRGM0zbjn0gkt3/RBFEZTU9thcp6RbTLjbTOIxk1I29s+jgkHIp5Gk+r87GdU+o0DnmOm0ip9RocxkebJwM1KWaQlq0xyQQel2qUlpSWrS5GbKnzkthFKc1DCsK7V6c1hFK26ooUhXavkyQoyaW7hY7QfSNR3cH40PwqLPDXd1XdYxljSSpKMoc+ZIDDBpbOBTuA62pFuLg9qsi3GG2j39HmgSf66htYoOaj0C6m4ERehezg5zUT8VA/o88QnjKGhpsxbn2pEEahR+xH/AP/EAC0RAAIBAwEIAAUFAQAAAAAAAAECAwAEERIFEyEwMTJQYCNBcICQFCJAUWGx/9oACAECAQE/Afw53DHVwpWOoekSwlzkUtuwP20ySsrYFRyuW48iRiq8K371CxZcnxJdVxk/xZY2LZFRRsG4jkSjK1uX/qoAQvHxE0ywLrap7l7h9bGtn32++E/X0d0WRdL9KuLCSN8IOBqztBbLx7vrYbgg4qOYyHHIdtK5r9SajfWuT55wdRq3B18ibsrBqDs8fe3ot1Kp3VZ37QthzwNKQwyvNwPNX9hr+LHVtavdPpHSoo1iQInT0gKF6fZBdXK2qZbrVptIs2mb5+kbRtHVt8OI/wCVFE0zaU+dQxmGMIfl6OQCMGobeO3zoH1sVGftFEY4HlrGz9oo8Dg+bHE4qIKsYC1tNACCOV1qIBYwFrakarhh5yK/liGmppmmbU3Lhv5Yl01LM8zam8mAWOBTWkyjUR6Rs7Tvv3Uf9qXG8bTzURpDhRTxPEcOMeZBKnIpryZhpJ52zQu6yOtXgXcnVQ6ejwzvB2VNdST8GPoFrDv5QlGygYYxUqbpyno8EphkD0dpQheHWncyMWP4I//EAEgQAAIBAgIEBwsJBgYDAAAAAAECAwAEERITITFBBSIyUVJhkyAwMzRCUGBxcnOxEBQjNWKBkcHRJEBToeHwFWOAoqOyQ3CS/9oACAEBAAY/Av8AXBjJIsY+0cK8Zh7QV41D2grCOaNzzKwPoNdI7kpHgqruGr5UliYo6nEEVGx2soPoLf8AtD4CmLIrHPvFS/RpyD5PyQewPh6C3/tD/qKMbqxObHVTqEk1gj5IPYHw9BZLyyQTpNrZcwBU14l/yL+teJf71/WkWaAQRE8Zy41ClQbFGH/tS6VLqWGKKQoqRuQNVeP3PamvH7ntWq1DXcs0ckgRkkYsCD3TS2zZJWcJm5q+sLntTX1hc9q1fWFz2pqdLpzK8DABztIPmck6gN9GKzthcxKcDIWwx9VCe3b2kO1T+53/AL9/jUUkkeLHrqWRI8GA1a6svfJ8e6X36/nUUbjFTXgv9xrJEMq5ca4Q9tfgfM2J1Dnp7CwbC22PKP8AydXqpmRC4UYsRuoXFu3UyHY4pbi3PtR70P7lwh79/jUSPMqsN1TIkysxGyrL3yf9u6X36/nULu2VQdteMLWeNg65dorhD21+B8zPwVATHGoGlbpY7qWCIcY6yTuHPWhjXHHlsdrV86tx9ATxl6Jpbi3bDppuYVBdJqWVA+B3fuN2TbyMkkhdXRcQQa8Vm7M14rN2Zq0wtpFVJFZmZcAAD3TR2yaSRHEmUbSKw+azdma8Vm7M14rN2Zq4kuIzFp3BVW24eZvn9muN2o46dMfrQdCYpUP3g0zzuIZYl44P5VgvEt15Kc/roNrjs0PHl/IVHDEuWOMZVHMPQV7+xGFzhx4x5f8AWiCNdYkmK0Tlyc/UKjt7dBHEgwAHoP8AOZEeOQ620RwDUlvbxiKJNijv5J2CnNtooYMeKCmJwrwkXZV4SHsqjs71UcTaldFwwPdNcqueQsEQHZjXhIezrwkXZ14SLsqkeZAs8TZWy7D5ua5upNHEu+vm8LPHL5IlGGb1d8k9k0ajczOMy47KEiyMxxw11wd7z8j3Ufv1+BqOInKG3ivDP+FaJWLDDHE1f+8X4ebZLm5fJGo/HqrO/wBHAvg4ub+tKynKw1gils7shL1Rqb+J/Xvcnsn5IdY5AoaxyxXB3vPyPdR+/X4GoP73VyhRw6Iq/wDeL8PNktzO2WKMYmizkpbqfo4uatLKCtqu37XVQNsixTxjBcNjdVeVFNGfvBr5pc+ORrjm6Y5+9Oo2kU8cilZFOBB+WyyKWCNmbqGHdYopbRyqzYbhr7i8kIwR5RlPPq82XFmzZBKuGbmp7a5TK42HcfVS2d02EeyN+bqNZ340jchBvp55Ti7mv8TuRo8yYRx78DvPezJPZwSyHynQE19XW3ZCvq627IUfm9vFBjt0a4d0VYBlO0Gvq627IV9XW3ZCvq627IUEjUIg2KowA826KYZZB4OXetNbXK5XG/cRzigZHL4DAZjUfCPCCcXbFCd/WfQfRTcWQciUbVrT3ky3eXkR5cB9/oKzyMERdZZjgBTC0uo5yu0KfQdpJGCIoxJO6jbW+Mdip7So7m3fRyp/eFY6kuk8JF+foK0kjBEUYljuo21qxSxX/k66yJxYhy5OahLYqTkHHj3nrpLi3cxSod3wrEcS6XwkX5jq9BLq1hOWV14tPFMhjlQ4MrUtiVEUw2YeX/WmmmbKg/nUs6xiIOeSKbhFlyW2Qxgnyz6Cm4h+jvlGo7n6jTI4MU0ZwIO0Go/nD5sgwFC5uQUsVPadVLHGoRFGAUbB6DaaHLHfLsbYH6jQbhNNDbp5AbEvSxxqEjUYBRsHowXchVG0msjXyMfsAtX7JdxzHog6/wAO9FnIVRtJrI18jH7ALVha3ccrdHHX+HnuSCFytjGcFA8vrr6OJ3A6IxoMrNFKu8aiKKTeNwYB/tDn7y9vAxWyiOAA8s89fRxvJh0RQZS0cqnUdhFNHP43BhmPSHP55v3TlLA5H4fIiRDigbqgkGp2xBrKNjwtm/l3i+dOUsLkfh8kSRjiZR99QTDVIxIPXWUbHibN5yy3M40v8JNbVg0Vwg6RUfrWktJ1mXfhtHr7l43GKuMpFTWsgOAPEPSWtFxZVGzPurSTNieYbBUvCUy5dKuSLHo7z3h43GKsMpqW2kU4Y8RuktCLiyqNmfbWkmbE7huFTcIypl0i5IsebefOJePxmU5I+rrosxMsrnfrJNaR4DkqO5t3wI2jcw5qguo+RKgYdzorqPNhyXHKWvoL9cn+YmulkvZTeMNYTDKtBVGAG4dwY2nM8g2iEZsPvoJpmgY/xlwoEHEHePl0V2mbDksOUvqr9n4QXJ/mJrpZb2Y3ZGvRgZVoBRgo2AeceDejx/yrjcrLxfX8k+j5Gc4VaZvtYf8A0e9ngu1fJqxmYbfVWWJDIeYVhNG0Z66Tg2d81vLqjzeQ3N6vO+WLxmE54+vqrWGilQ/eDWjafi7NVR21shZ237lHPVvapyYkC974Rz7dM3xrMvLLHNU+kw1DV66tmTliVcPx88Z54sk/8WPUaxa7uGXm1Vo7OERg7W2lvWe4kuJmyRRjMxpkt3aztdyocGPrNZxK+fpZtdJDwhI1zanVnblL+tK6nMrDEEb+4PCcS4wS+Ew8lueiYWwx2qdlASvxRsVRgKju3T9ltjmzHe24efoIFOAnk43qFLCTgm01o9AB9rfUsOOOQ7ajDnEwuYvu/s9w0cih0bUVYbaLW8stpj5I4y1jcXEtwOjyRSwwRrFEuxVHn5Z0GJtnzH1f3hSTKMcNo56xAcv0MKeV+W5xqFZBlklJlI9ez+XoKyOMysMCDTy8FkSRnXoGOBX1Vk/w6bH+VJc8JlWy6xbrrGPX/ra//8QALBABAAIBAwEGBgMBAQAAAAAAAQARITFBUWFQcYGRofAQIDBgscFA0fHhgP/aAAgBAQABPyH/ANvrByJomHznuj9z3L+51ZWT0+xWI8VpwUdO9fjdhM2Ri6mD3p9jWrcAFg7EYwk0RxNk9z4fY3xdXy10ohPSYoVk74bT2Ph9iMNQBQgK3cmD4wCFszbzcwNwrpQN9PsWvilwK+wbly5caQb+a5c1S+yL/hpcDaj5CrbmFfv/ADns79xoNLyK3+ZXd7OpbtOuI5jY+/We5v3Pc/7maClYF58nsdWQFqaCWolOHdV6zK2MeGz/AA/ZucRIdtubxHRyr8z3Lj83sPEX/nkutpTug+xVS757HeIkALU4IpEcpnoe1yqxIMDln/E00f72mfY4Z7owb/g+9c4dom13zHaIN8k9i4fN7DxAUsotsMxxxNgdTPYzxalPZDaaLO5p3w0XRANV3SnyvBtazcJtOpfrcdGUA2ieHf72gYIxqWNP4DEWP8QWZJd7X0nuD9Q8aL4QuvzOJ2uhd15x5R+ziexf1BPa+kQHgOqDVPH0h2IkBcIeG3OiXgZcA5lhDmmevKZZL/uQ+jKLf9kCIaXQCg/gJcr4pfzJK+FSuxm28OhnY1HWe1x2wVESm+JcAZT7T+PrnQzLUv5D5Vr5Bvsqo5StNt6kNkVfXIaWLYLtkd/RXef5af5SXTqtGq/Eh8pr90GXl8BjY4OgYJ/XmY/Cmw21sFj037OKRvGVeA3ZYqf+rIN/TN+2xPVRkgDAbkfMjQEykDT5fOBBi6G+4l39SJKAwe3coY7MPpv27YcrAqq2twOXmGbtF6R5JTWAzQYG/peycTU74Q/GekDxup3/AEKJLsKBbr3p/qQlITWOzVL/AALzXKEcHl6y7Ost3whVAhiXKJ+GETFXh1pjHvF5+k5y0h5RjizsjLeX1ivL6x/cDBuMsPlqkOigL80hLeWZerGJgE4ZfnszGaEN12PmEtuPBp7PRCKByfcJfWpzn/XWZcyNadA6S9dXbVRg/EPpazFGjxqe5f1Pcv6hfTk38ofKbcKHYxZtX28T2r+p7n/UwD/8AB2ZUd0GoGX+ukffo/Ck4iWYqso4nQ1L8J8cHdDCoTf7DS5S7Wmz/wBdITOOwzeeXdAo20r419gkn6kA6s5Jj2fGvsS0wb6ARj+4ajd6dPOPDZYm5y5HiFhQa2nRyQz9iMRs7QCIsqqMK5dOPPuKXdwD/cUrU6w8Os1oZPyHHJC1JdfJ+T7EAXCstCiNekomgqkZrecmj3fiAXBitVsHWWaykxKNDSxNOQph9hpK8eGw9lM0YlwFNCFCYO/vZ3b9C+HTllIW20HECvsRLi8RsuBEwSrR9DjQlV/W4OPsepX8A5L2ugO+IAnDQHiEou4t87MG/oOIZV7XQeMYDOGoPEKigrba+dmDnTsuvnv51RbgjxB4sW753iJJNXEaMOGtxxypHJp6c/QQFuCP1KxVWFc7wFrNV6EsjqG0RXRocvp6c9s4aqg5vBQO8H4FrljWA1ojuFUzZhFNMW/MPn2ZqObzeB2ohXRcDAUIVTmbdappRT+Ydn6xx1iDHLo9LbxnWk5ehFC20PwRqfLe0zlDhl7MmnCaJDGzKlei4hqBjQe6JLqCMtr8TH0LWDhyOGVwlNWLsJAgFVU0OLlAGx6HSOOqEKW9+JjtH1ggt/ASx1ZciZVr1NU14RkytfqlMJAk7WafIzwMyp0ZbX1sgDwYrUaPnTeHgNQFAfFItwcxjo1lz0esV6yjA8yyEmNYlj8HMK91GnKl7kNBqeTGIvTJevMLoSgUB2gxYv8Af/mYLENv3P1KEyFVWYME9IvEbz9c3HzFSvi6RsgqvSvS+2Mxlx+3ULMGlcPjFW6pW7A6oPxqV2kpG/IDPiIpKBIlcL/Ze9YsgF8Y3AKadQukypmXmtXx+LLnWuX8jEu342j0mPiUzW9iK25N2ttF0bGnNKh2slxw5Cr7+/Z8Znze0r41+o5zEbK8xgV8TNpp2IWMNIdT+iV07XR+K7uOUHcde9nfCJiacHR+LGD0BjQKt0a93DR7IteH7hG7UQfgXYY2jxz4Q7cZ5jwQ3XmkxChp1o49I8oqoG7m472g9RqR7gUvCk9KfFzBp9lAOsdMK30Ac+sDGzdQbvrPrDmDVIErt3Hw36yn1j0xiNyYhzwesy3JdRzaCanJ5PsUkqg1iOpFSP5Ak4TymLy1Wh6rqXv5cdBbfuh9jiv/AEl//9oADAMBAAIAAwAAABCSSSSSSSSSSSSSSSSSSSSSSSSSSSSSSSSSSSSSSSSSSSSSSSSSSSSSSSSSSSSSSSSSSSSSSSSSSSSSSSSSSSSSSSSSSSSSSSSSSSSSSSSSSSSSSSSSSSSSSSSSSSSSSSSSSSSSSSSSSSSSSSSSSSSSSSSSSSSSSSSSSSSSSSSSSSSSSSSSSSSSSSSSSSSSSSSSSSSSSSSSSSSSSSSSSSSSSSSSSSSSSSSSSSSSSSSSSSSSSSQAASSSSSSSSSSSSSSSSSSSSSSSSSSSSSSSSSQQBSSSSSSSSSSSSSSSSSSSSSSSSSSSSSSSSSSQSYSSSSSSSSSSSSSSSSSSSSSSSSSSSSSSSSSSD2ySSSSSSSSSSSSSSSSSSSSSSSSSSSSSSSSSQaUSSSSSSSSSSSSSSSSSSSSSSSSSSSSSSSSSQQSSSSSSSSSSSSSSSSSSSSSSSSSSSSSSSSSSQCSSQQCCSSSSSSSSSSSSSSSSSSSCSSSSSSSSCTGSSCsgSSSSSSSSSSSSSSSSSSSACSSSSSSSQA+CSSKcCSSSSSSSSSSSSSSSSSQGaSSSSSSSSDaUSSCkiSSSSSSSSSSSSSSSSSQTwaSSSSSSSSSgCSQUySSSSSSSSSSSSSSSSSSSCmCSSSSSSSQAASSSCQSSSSSSSSSSSSSSSSSSCAQSSSSSSQAASSQACSSSSSSSSSSSSSSSSSSSSSASSSSSSQC2CSQQCCSSSSSSSSSSSSSSSSSSSSSCSSSSSSBtgSSQ4ASSSSSSSSSSSSSSSSSSSSSCcCSSSSSA8CSSfaSSSSSSSSSSSSSSSSSSSSSQLEASSSSSx0SSDJQSSSSSSSSSSSSSSSSSSSSST5GQSQCQSSCSSCSCSSSSSSSSSSSSSSSSSSSSSAOwSSSSSSSSSQSSSSSSSSSSSSSSSSSSSSSSSSQQSSSSSSSSSSSSSSSSSSSSSSSSSSSSSSSSQAAQSSSSSSSSSSSSSSSSSSSSSSSSSSSSSSSSQQwSSSSSSSSSSSSSSSSSSSSSSSSSSSSSSSSSSCU4CSSSSSSSSSSQSSSSSSSSSSSSSSSSSSSSSSR2SSSSSSSSSSSSSSSSSSSSSSSSSSSSSSSSSSQCCCSSSSSSSSSSSSSSSSSSSSSSSSSSSSSSSSSSSCSSSSSSSSSSSSSSSSSSSSSSSSSSSSSSSSSSACSQSSSSCCSSSSCQSSSSSSSSSSSSSSSSSSSSSCCSCQSSSRiCSSQeMCSSSSSSSSSSSSSSSSSSSSSSQASSSAUCSSSB7iSSSSSSSSSSSSSSSSSSSSSSSCQASQdiCSSQRyCSSSSSSSSSSSSSSSSSSSSCSAQeCSAQSACCACCSSSSSSSSSSSSSSSSSSSSCSQCPsSSCCSDwSCCSSSSSSSSSSSSSSSSSSSSASQQBjiQSQSQTsSSSSSSSSSSSSSSSSSSSSSSCSQSSASQCSSSTwCSSSSSSSSSSSSSSSSSSSSSASSSSSSSAZcSCACSSSSSSSSSSSSSSSSSSSSSQSQSSSSSQRDiSQCSSSSSSSSSSSSSSSSSSSSSSSQSSSSSSCCQSSSSSSSSSSSSSSSSSSSSSSSSSSSSSSSSSSAQSSSSSSSSSSSSSSSSSSSSSSSSSSSSSSSSSSSSSSSSSSSSSSSSSSSSSSSSSSSSSSSSSSSSSSSSSSSSSSSSSSSSSSSSSSSSSSSSSSSSSSSSSSSSSSSSSSSSSSSSSSSSSSSSSSSSSSSSSSSSSSSSSSSSSSSSSSSSSSSSSSSSSSSSSSSSSSSSSSSSSSSSSSSSSSSSSSSSSSSSf/8QALBEBAAIBAgUDAwMFAAAAAAAAAQARITFBMFBRYHEgYcFwgaFAkeGAkLHR8f/aAAgBAwEBPxD+xVnsjUgAVtqDtBadZsbS7zXY6RCqcV0Dd9pZKhNCs/eVWOyNfquZ0jiXenr8wGVWvPdmXVle7s1synYDq/MMAestrTArJ9326VMZVB31b68oIpRutfH6TZggAvX3bgeUNoNg+sTAGXFdD/EqgFDHUvlBISut9YXXpSa/o/EQc78BBwgygqsRy3yhkepdHSTpI7I007bStZS5OB7ZjjWY257rh0lyZQaA3L3h1iUM+99JagvrNcD/AEX4iZr9g+biRwAbffxy9Q1mjnimtTV2z8Yhgs0f2/7NMetCNFuemE+Zi063AQdHycuxvKxVGBckV3TiOSp1GKSlal+syprLdeXpZTB6SV82/ER3v2RWXv6r1vN67H6w7ZiKRe38zenbsbaVTwxhMUJXY9iMyuFj62P0BANtnDxYERcWc7RhtHe36xvLOEqLI2m/WAMsOdke1pZR3h7OMqTzNw1BBuT2Qh5s+KYnG/5jaaq4tMR5lQY/M8c4cHYwXkzTxxUHZfmB2+9dIKVdgKGvrGoWywyus88/ojWWPPXR7H3wNPMpH3P4mwEdkUTQo0/ra//EACsRAQACAQIGAAUEAwAAAAAAAAEAETEhQTBQUWBhcUBwgMHhIKHR8IGQkf/aAAgBAgEBPxD/AEVu0SmuxwG1afdj7GBXY/g5BrKTP0P1KduBZvz8zHiQ2LgMWNPMTLbfKPcxKvTX7REafgzMThArwBFCaEKg1ryh/s48v2jSp08evPmBRbO/U8/CCy3g28pQFahi8mn8fmWjXu8ePPY/uOue5cZ584j4GJcRwLqay6jcvpajo8ZaVvAajgakRqxClHlxq0R0LWnqavWbxe/4gxLOvF6BKM1wL2lHTmDhG0ySiNDK7f3pMODHZF9Srba0t+bGrg7Hy1vHjasEuPStHodH+YU6nY3SNF/o/wC/tKP25P3/ABcca6Z7HRBY6MxiuUHzr19GI6aeHraMDUU87AC3gubdIX1LwgFTD826RAlLztLh3IJZnh7mEuTzMwVrFuh7IC9WnuyAL2wkML4m8tifUuDX7T3zgw9JF+hl3xRPdRu/2vrFYvsDOP1rWqJRaLpPXPwQxmUHL7IdjijbPqWj/B+ZuBPZFsy25+tr/8QALBABAAEEAQIFAwQDAQAAAAAAAREAITFBUWFxIFCBkaEQYLEwQMHw0eHxgP/aAAgBAQABPxD/ANvwFiaRsMKJ0UVzH3+iwEImmzHZLQyTEfYgltZ0+9SfvNDtMJlTG6tx8xVv+P8AuihNbAGzPHSlnltjRX8/YjmrqOPWALYxylLlAEKImZjpXQj/AL9i3HNK8XJKHqqAwkG0vZqEadCUNdVWuxONx2pTo+xM5bp/7sDF2IQS15W22fHqKWdyeXpemA4q6Wm1gPWngSQYUED8fYiPNZzMdqCPp/wVA1PT7BYUT0kZkrqqFGy0zbJUSYjwrDEUBqFJIBLEsOOKNLTwNG/J2CkTBNqP2XMS2TNOz8kqmiJULPWNUGBF0pzlqwW0P6l2bCTZKED1XwwrrdJa4GAdTT02krEvcD8FIWucVSYRCRJpsNqeUQPaNzcnFG/JmSsNAMquN+1T1HvSUYla1lnikPsD4R7n62cNDP7Fz6Vate0Jg5EMwJUi0w8MDC9fikyzevMeIG/J0NSucnaonXn+zTN7iu5dl6FGL9IeSqDNCgCVXRbNO/ZjycuSeUZhqmEjZuEpozE8NLfZhRJOPtchczeaMiAG8GT+R2R2IGIvH7Bz6VlOM9cp3bskt4oMOZrKm4r0tQY8SNuGptpFSgkWJSVi3brSbLfIA2X6Q+tOfJZID0qUUlSwKmIsrzLUXTcnQhT5C0bajrghEIXbJ0wRS3skDiXN+DVLFBE1Nk99MpSVhV6OEy6jb0/YKHGqUygv2wDcGE0jSpZp3mpGiG1nRcWyJQGBgmjfhZjwvigHaXRS2IYRpdCyUEogVAqRxieaziSqzRST18kkRmE3UQoBMQkOgW6gFouFqISWEWPWRHlkpywELGO+htzNFN9xnojKkQdKJHUJDir7YkuCTNY5SbiB2A/YchKI4txGCoqKuvw4oI3PhkohO/Sop/qKZfiaCC+fJZkyLao6F9QQX44l7NhvMfD7iGGHNoh4pFFGyS+VFn8pogaCsRt5VlWgg/V4FuaPRU1MUsUpJ8I/1ihmbfSbxFXHHPPlTLaWi1QUwj5yJv1IqEVnYDquVeW9BBz+tK1LizASx6FR3hIQLG0EMQB81/paUMl3pe08IIgISJHRL5xWHhLP5i3axeBHWIqwL1ZCPdfzV2Ie/wDimaXyIj260KHqFlkI7WRLihmfLJvFWtdISWDXTir1Ow9nSELmzDZqBKQ8fppdxZkzn/qnLxdX5pMBoIIMXnmlqhTiEWbdvmjw721Qgfx4R2lI7v8AFQ/PDchP8VYSgRA0l3SwBvNrdqOZV2VCETPla3ilhWVd9J2LBQgJlc6cdiLpbF4mk71UKhENlmefajWkhDF0nGam8kTFQJx3/S/ruVW29ruKVE4WPHrTsjEFcaVeyJKqMHidGKK/Ydz+5oQPTt1/yoOKZJN1/ec/LBJR5ywaDlbHevh2+x9svOiDVGxIRk1pclyX80cZioPHrTDy0VXC2/OHIlk42UkxYCgTAaYQ3MnAKlyH9GHAeOVBSIFdg2EbUf4xpB0Zur4pjg/4M1MF0DmsO1vDMiViWUwz/KoJCKdQv76oN6ssTfNIgQpa+X3oisgJZyOll6GTh48rS+leIwjkJBsmlRIIFWsraPZEqDMUETX3DMOpc0UA8LmBZeBvh8E5mgACIBwCL6NtS8fs6CdQgszCPSjB61LMRbwKhYmhkn6pJQ9EAmDEqVA7qF2oGpP87YE69qEF2fCqtwE/CNkpUgWZfpLjJINxywnE2UX3YcDgLG6CDM+VsnNqAd7stdvfDik1qx/lIgzqIvle3DORzAlsZU2PpTtksWs2Hq4BPFEHQt3KEUDJ/Z78wkHFN79E3ocStyq+DUIMQatmewu4oQQCQABFBE3mfoQZ1x9gLDG6WIEIDKjAVAOu7G4Ybp1LUM0k7tRDbQQXZ+wljr0pXIApqVVsEU6EsF1jB6Fk/wBRoBVaa4+qs6RTxjDMeLt151COpSLkP2JvnJCUrxSHTkYv/Dh02SgGRkxq2nlgKE0IikXefkcRUt0Q6CLdWVEJ+aga2Je2LkSOHVy8SjP7ffTyxjpFzLbw2epmmT5QDrJHPEZIqdWcIvKyxICIaWrIjeCcvDhWabD86AkgXqwrgmaL7WVSW3QvaWmJZscfYcjm3FWbPrYy3X1kLTNOjyQqo7yQX6ZaQ1InuBDHDsXMaoZnmARGf6zVH6ZDRIAcVA+xNpYiErtbxcZg4w6ocnXlmCtFi83TRsKoBwHAOKCPsZluo8vFBHhWCc9v0ViomeN88qxSTDu4cSj2aJCG8C3nBZ2qR6T+goTmo/SLn5VYO8U5S5Ubq72LRwyUlYZwfClUSI8qSTiu9KDwR9CUanmovnxA6AXV1TF5ySJIOC2GIvebTJkIAcSFiic3WweNl+SKgZmJBMC6qjqjmhno+NmoF1cFO5/NoDiEwDEXvNmQ4RdgI6UYySZ5sjZtQa1GAvCLmUQ3HND5esUSp/iovnxoyqXIEKdaBHZBLxm3pNWPvj3sLrftQuiDtmSDpKTT57TaIHwPehdnxsSjbkBxOtBMYWec416VJyAd8VLq+xQo8JI4hEax60ca33AfwD1obfL8iccJSsgZOKDiICnnEnaNihLqxAjqofilMcyIR2bvRChXUeDo4Fhoey0DZLFKKvYiEapPAVgLQCSdGhCMEQ2AlYwt9UkEgWsBHSIdBqL+PppKtoey0F5PRMUvYkWyI0AE0oFBAOLYqIVCQTKQSxiXtWmHBQCOkQdg0Eb8qe0+BuxaKx1qLuz24pLHHzJTBJvKxOZXTm2qcBJK4HKL27UDw0qwUOxObiHahlcroSK7Mnp4BJmKByhZc1v+NtSXUbcKksL1goUs4CoiXFv6nahE+OBYAMH0WDE0/cMlTAHK6xTIQQ6GRkT6CjcUUD2c3EsHq94KKMYwB2JZOo/QQiYpqpKuGyHR6lxqYpayS4lh7wUSBVkpEhK3nJ1o3mygWACwHHlSx4QjdYVeg9KYuD8miKVIJCQI63UuzFJHIDM/ObURuAwNn/Cj0moWBAHZI6Z+fC0dT70AZgnn63qLtNEDGhZEXEhQzeMTIF4DJg6zYzm1HvWX7EFGm9+m2xGrpGBSIuIOMP0SaIf9oAyBPPlSxqfDv6NWzCcxORPr8gUzw6w5RVrI2bPW8MQSCO4QSz0oiLRSsBOgN5ypSB2U8h8iX1fqoMT0K7KQUAjIJROLN6Gen1woC1ChzBB9hHSmNsQID4IZ634oPHDCLAghhZSjNXDPHHrarQAgLR5a26/omYaDriDhEGLDyFsXiiV8yQnDIP8AUU4mTuiJ/TFWAYiPrf3FJB+VYA2pSLpGRwCRxpbGbUJHoCy9H3KOY/c6BsC9lN5m0KIqgkIQdiJ9ceKKYrNjHAAuxCbwtjkWM4lQ4cM0WiWxBBZgz6z7S0XINkeFG0ucWbGjDjR5YsfsFFIfiEdYORT6Uxp01Z+YqF9aGB0jYg9RvxUpYpwYBHrDXTzNsP0AdA+ooo34RzIGzSNUJhPZj3UVVFiZwE+wUdoJqJu2+XbeiDPliT+wSSmHkBJZznaR6DxUtI4ZiXB8PqVIB7bYdDhHX4qzbBJu78fig+iNAxgOYfM19iNHgskGhByIp60iekHlelALi2ahRqwxer92Y601+I8wRZ2A3hIsXohBY+xUUsxTKOOJaj/ddqCNz3/9I//Z;clipPath=inset(10.5% 25.33% 6% 18.67%);imageBorder=default;strokeWidth=0;" vertex="1" parent="1">
          <mxGeometry x="110" y="221" width="110" height="109.34" as="geometry" />
        </mxCell>
        <mxCell id="pAw7oPJRyMl5xoIWGYts-6" value="" style="rounded=0;whiteSpace=wrap;html=1;fillColor=none;strokeWidth=2;" vertex="1" parent="1">
          <mxGeometry x="110" y="171.00000000000003" width="110" height="156.67" as="geometry" />
        </mxCell>
        <mxCell id="pAw7oPJRyMl5xoIWGYts-10" value="&lt;div align=&quot;center&quot;&gt;&lt;br&gt;&lt;/div&gt;&lt;div align=&quot;center&quot;&gt;&lt;br&gt;&lt;/div&gt;&lt;div align=&quot;center&quot;&gt;&lt;br&gt;&lt;/div&gt;&lt;div align=&quot;center&quot;&gt;llama-3.3-70b-versatile&lt;br&gt;Bei Groq&lt;/div&gt;" style="html=1;whiteSpace=wrap;fillColor=#FFFFFF;strokeColor=#000000;strokeWidth=2;align=center;" vertex="1" parent="1">
          <mxGeometry x="353.5" y="352.5" width="141" height="85" as="geometry" />
        </mxCell>
        <mxCell id="pAw7oPJRyMl5xoIWGYts-11" value="Json-Response mit relevanten Wikipedia-Seiten zu jedem Thema" style="html=1;whiteSpace=wrap;fillColor=#FFFFFF;strokeColor=#000000;strokeWidth=2;" vertex="1" parent="1">
          <mxGeometry x="590" y="360" width="150" height="70" as="geometry" />
        </mxCell>
        <mxCell id="pAw7oPJRyMl5xoIWGYts-12" value="" style="endArrow=classic;html=1;rounded=0;exitX=1;exitY=0.5;exitDx=0;exitDy=0;entryX=0;entryY=0.5;entryDx=0;entryDy=0;" edge="1" parent="1" source="S85leJHSqdNUD-kr0iaN-9" target="pAw7oPJRyMl5xoIWGYts-10">
          <mxGeometry width="50" height="50" relative="1" as="geometry">
            <mxPoint x="230" y="420" as="sourcePoint" />
            <mxPoint x="280" y="370" as="targetPoint" />
          </mxGeometry>
        </mxCell>
        <mxCell id="pAw7oPJRyMl5xoIWGYts-13" value="" style="endArrow=classic;html=1;rounded=0;exitX=1;exitY=0.5;exitDx=0;exitDy=0;" edge="1" parent="1" source="pAw7oPJRyMl5xoIWGYts-10" target="pAw7oPJRyMl5xoIWGYts-11">
          <mxGeometry width="50" height="50" relative="1" as="geometry">
            <mxPoint x="230" y="420" as="sourcePoint" />
            <mxPoint x="280" y="370" as="targetPoint" />
          </mxGeometry>
        </mxCell>
        <mxCell id="XjMfMk2JlLKbFnYAxCPU-64" value="News" style="text;html=1;align=center;verticalAlign=middle;resizable=0;points=[];autosize=1;strokeColor=none;fillColor=none;fontStyle=1;fontSize=15;" parent="1" vertex="1">
          <mxGeometry x="426.5" y="20" width="60" height="30" as="geometry" />
        </mxCell>
        <mxCell id="pAw7oPJRyMl5xoIWGYts-16" style="edgeStyle=orthogonalEdgeStyle;rounded=0;orthogonalLoop=1;jettySize=auto;html=1;exitX=0.5;exitY=1;exitDx=0;exitDy=0;entryX=0.5;entryY=0;entryDx=0;entryDy=0;" edge="1" parent="1" source="pAw7oPJRyMl5xoIWGYts-17" target="pAw7oPJRyMl5xoIWGYts-41">
          <mxGeometry relative="1" as="geometry" />
        </mxCell>
        <mxCell id="pAw7oPJRyMl5xoIWGYts-17" value="Identifikation relevanter Wikipediaartikel LLM/EMBEDDING" style="html=1;whiteSpace=wrap;fillColor=#FFFFFF;strokeColor=#000000;strokeWidth=2;" vertex="1" parent="1">
          <mxGeometry x="604" y="559" width="120" height="60" as="geometry" />
        </mxCell>
        <mxCell id="pAw7oPJRyMl5xoIWGYts-18" style="edgeStyle=orthogonalEdgeStyle;rounded=0;orthogonalLoop=1;jettySize=auto;html=1;exitX=1;exitY=0.5;exitDx=0;exitDy=0;" edge="1" parent="1" source="pAw7oPJRyMl5xoIWGYts-19" target="pAw7oPJRyMl5xoIWGYts-20">
          <mxGeometry relative="1" as="geometry" />
        </mxCell>
        <mxCell id="pAw7oPJRyMl5xoIWGYts-19" value="WhoIS-Services &lt;br&gt;(IP Adressen)" style="html=1;whiteSpace=wrap;fillColor=#FFFFFF;strokeColor=#000000;strokeWidth=2;" vertex="1" parent="1">
          <mxGeometry x="99" y="685" width="110" height="40" as="geometry" />
        </mxCell>
        <mxCell id="pAw7oPJRyMl5xoIWGYts-20" value="von wem" style="html=1;whiteSpace=wrap;fillColor=#FFFFFF;strokeColor=#000000;strokeWidth=2;" vertex="1" parent="1">
          <mxGeometry x="334" y="685" width="110" height="40" as="geometry" />
        </mxCell>
        <mxCell id="pAw7oPJRyMl5xoIWGYts-21" value="&lt;div align=&quot;center&quot;&gt;anzeigen&lt;/div&gt;&lt;div&gt;&lt;br&gt;&lt;/div&gt;&lt;div&gt;&lt;br&gt;&lt;/div&gt;&lt;div&gt;&lt;br&gt;&lt;/div&gt;&lt;div&gt;&lt;br&gt;&lt;/div&gt;&lt;div&gt;&lt;br&gt;&lt;/div&gt;&lt;div&gt;&lt;br&gt;&lt;/div&gt;" style="html=1;whiteSpace=wrap;fillColor=#FFFFFF;strokeColor=#000000;strokeWidth=2;align=center;" vertex="1" parent="1">
          <mxGeometry x="609" y="790" width="110" height="120" as="geometry" />
        </mxCell>
        <mxCell id="pAw7oPJRyMl5xoIWGYts-22" value="Wikipedia Edit Hisotry" style="text;html=1;align=center;verticalAlign=middle;resizable=0;points=[];autosize=1;strokeColor=none;fillColor=none;fontSize=15;fontStyle=1" vertex="1" parent="1">
          <mxGeometry x="308" y="510" width="170" height="30" as="geometry" />
        </mxCell>
        <mxCell id="pAw7oPJRyMl5xoIWGYts-23" style="edgeStyle=orthogonalEdgeStyle;rounded=0;orthogonalLoop=1;jettySize=auto;html=1;exitX=1;exitY=0.5;exitDx=0;exitDy=0;entryX=0;entryY=0.75;entryDx=0;entryDy=0;" edge="1" parent="1" source="pAw7oPJRyMl5xoIWGYts-24" target="pAw7oPJRyMl5xoIWGYts-30">
          <mxGeometry relative="1" as="geometry" />
        </mxCell>
        <mxCell id="pAw7oPJRyMl5xoIWGYts-24" value="Wikipedia API/DUMPS" style="html=1;whiteSpace=wrap;fillColor=#FFFFFF;strokeColor=#000000;strokeWidth=2;" vertex="1" parent="1">
          <mxGeometry x="99" y="572" width="110" height="50" as="geometry" />
        </mxCell>
        <mxCell id="pAw7oPJRyMl5xoIWGYts-25" value="Assets" style="childLayout=tableLayout;recursiveResize=0;strokeColor=#67AB9F;fillColor=none;shadow=1;" vertex="1" parent="1">
          <mxGeometry x="249" y="540" width="310" height="96" as="geometry" />
        </mxCell>
        <mxCell id="pAw7oPJRyMl5xoIWGYts-26" style="shape=tableRow;horizontal=0;startSize=0;swimlaneHead=0;swimlaneBody=0;top=0;left=0;bottom=0;right=0;dropTarget=0;collapsible=0;recursiveResize=0;expand=0;fontStyle=0;strokeColor=inherit;fillColor=#ffffff;" vertex="1" parent="pAw7oPJRyMl5xoIWGYts-25">
          <mxGeometry width="310" height="33" as="geometry" />
        </mxCell>
        <mxCell id="pAw7oPJRyMl5xoIWGYts-27" value="&lt;font color=&quot;#000000&quot;&gt;&lt;span style=&quot;text-wrap-mode: wrap;&quot;&gt;Artikelname&lt;/span&gt;&lt;/font&gt;" style="connectable=0;recursiveResize=0;strokeColor=inherit;fillColor=light-dark(#ffffff, #405e00);align=center;fontStyle=1;fontColor=#FFFFFF;html=1;" vertex="1" parent="pAw7oPJRyMl5xoIWGYts-26">
          <mxGeometry width="93" height="33" as="geometry">
            <mxRectangle width="93" height="33" as="alternateBounds" />
          </mxGeometry>
        </mxCell>
        <mxCell id="pAw7oPJRyMl5xoIWGYts-28" value="&lt;span style=&quot;color: rgb(0, 0, 0); text-wrap-mode: wrap;&quot;&gt;Bearbeitungsdatum&lt;/span&gt;" style="connectable=0;recursiveResize=0;strokeColor=inherit;fillColor=#FFFFFF;align=center;fontStyle=1;fontColor=#FFFFFF;html=1;" vertex="1" parent="pAw7oPJRyMl5xoIWGYts-26">
          <mxGeometry x="93" width="127" height="33" as="geometry">
            <mxRectangle width="127" height="33" as="alternateBounds" />
          </mxGeometry>
        </mxCell>
        <mxCell id="pAw7oPJRyMl5xoIWGYts-29" value="&lt;font style=&quot;color: rgb(0, 0, 0);&quot;&gt;Bearbeiter-IP&lt;/font&gt;" style="connectable=0;recursiveResize=0;strokeColor=inherit;fillColor=#FFFFFF;align=center;fontStyle=1;fontColor=#FFFFFF;html=1;" vertex="1" parent="pAw7oPJRyMl5xoIWGYts-26">
          <mxGeometry x="220" width="90" height="33" as="geometry">
            <mxRectangle width="90" height="33" as="alternateBounds" />
          </mxGeometry>
        </mxCell>
        <mxCell id="pAw7oPJRyMl5xoIWGYts-30" value="" style="shape=tableRow;horizontal=0;startSize=0;swimlaneHead=0;swimlaneBody=0;top=0;left=0;bottom=0;right=0;dropTarget=0;collapsible=0;recursiveResize=0;expand=0;fontStyle=0;strokeColor=inherit;fillColor=#ffffff;" vertex="1" parent="pAw7oPJRyMl5xoIWGYts-25">
          <mxGeometry y="33" width="310" height="32" as="geometry" />
        </mxCell>
        <mxCell id="pAw7oPJRyMl5xoIWGYts-31" value="COVID-19-Pandemie" style="connectable=0;recursiveResize=0;strokeColor=inherit;fillColor=inherit;align=center;whiteSpace=wrap;html=1;" vertex="1" parent="pAw7oPJRyMl5xoIWGYts-30">
          <mxGeometry width="93" height="32" as="geometry">
            <mxRectangle width="93" height="32" as="alternateBounds" />
          </mxGeometry>
        </mxCell>
        <mxCell id="pAw7oPJRyMl5xoIWGYts-32" value="2020-03-01 08:45" style="connectable=0;recursiveResize=0;strokeColor=inherit;fillColor=inherit;align=center;whiteSpace=wrap;html=1;" vertex="1" parent="pAw7oPJRyMl5xoIWGYts-30">
          <mxGeometry x="93" width="127" height="32" as="geometry">
            <mxRectangle width="127" height="32" as="alternateBounds" />
          </mxGeometry>
        </mxCell>
        <mxCell id="pAw7oPJRyMl5xoIWGYts-33" value="192.168.1.1" style="connectable=0;recursiveResize=0;strokeColor=inherit;fillColor=inherit;align=center;whiteSpace=wrap;html=1;" vertex="1" parent="pAw7oPJRyMl5xoIWGYts-30">
          <mxGeometry x="220" width="90" height="32" as="geometry">
            <mxRectangle width="90" height="32" as="alternateBounds" />
          </mxGeometry>
        </mxCell>
        <mxCell id="pAw7oPJRyMl5xoIWGYts-34" value="" style="shape=tableRow;horizontal=0;startSize=0;swimlaneHead=0;swimlaneBody=0;top=0;left=0;bottom=0;right=0;dropTarget=0;collapsible=0;recursiveResize=0;expand=0;fontStyle=1;strokeColor=inherit;fillColor=#EAF2D3;" vertex="1" parent="pAw7oPJRyMl5xoIWGYts-25">
          <mxGeometry y="65" width="310" height="31" as="geometry" />
        </mxCell>
        <mxCell id="pAw7oPJRyMl5xoIWGYts-35" value="COVID-19-Pandemie" style="connectable=0;recursiveResize=0;strokeColor=inherit;fillColor=#9AC7BF;whiteSpace=wrap;html=1;" vertex="1" parent="pAw7oPJRyMl5xoIWGYts-34">
          <mxGeometry width="93" height="31" as="geometry">
            <mxRectangle width="93" height="31" as="alternateBounds" />
          </mxGeometry>
        </mxCell>
        <mxCell id="pAw7oPJRyMl5xoIWGYts-36" value="2020-03-01 10:00" style="connectable=0;recursiveResize=0;strokeColor=inherit;fillColor=#9AC7BF;whiteSpace=wrap;html=1;" vertex="1" parent="pAw7oPJRyMl5xoIWGYts-34">
          <mxGeometry x="93" width="127" height="31" as="geometry">
            <mxRectangle width="127" height="31" as="alternateBounds" />
          </mxGeometry>
        </mxCell>
        <mxCell id="pAw7oPJRyMl5xoIWGYts-37" value="192.168.2.2" style="connectable=0;recursiveResize=0;strokeColor=inherit;fillColor=#9AC7BF;whiteSpace=wrap;html=1;" vertex="1" parent="pAw7oPJRyMl5xoIWGYts-34">
          <mxGeometry x="220" width="90" height="31" as="geometry">
            <mxRectangle width="90" height="31" as="alternateBounds" />
          </mxGeometry>
        </mxCell>
        <mxCell id="pAw7oPJRyMl5xoIWGYts-38" style="edgeStyle=orthogonalEdgeStyle;rounded=0;orthogonalLoop=1;jettySize=auto;html=1;exitX=1;exitY=0.5;exitDx=0;exitDy=0;entryX=0;entryY=0.5;entryDx=0;entryDy=0;" edge="1" parent="1" source="pAw7oPJRyMl5xoIWGYts-20" target="pAw7oPJRyMl5xoIWGYts-41">
          <mxGeometry relative="1" as="geometry">
            <mxPoint x="635" y="636" as="targetPoint" />
          </mxGeometry>
        </mxCell>
        <mxCell id="pAw7oPJRyMl5xoIWGYts-39" style="edgeStyle=orthogonalEdgeStyle;rounded=0;orthogonalLoop=1;jettySize=auto;html=1;exitX=1;exitY=0.5;exitDx=0;exitDy=0;entryX=0;entryY=0.5;entryDx=0;entryDy=0;" edge="1" parent="1" source="pAw7oPJRyMl5xoIWGYts-30" target="pAw7oPJRyMl5xoIWGYts-17">
          <mxGeometry relative="1" as="geometry" />
        </mxCell>
        <mxCell id="pAw7oPJRyMl5xoIWGYts-40" style="edgeStyle=orthogonalEdgeStyle;rounded=0;orthogonalLoop=1;jettySize=auto;html=1;exitX=0.5;exitY=1;exitDx=0;exitDy=0;" edge="1" parent="1" source="pAw7oPJRyMl5xoIWGYts-41" target="pAw7oPJRyMl5xoIWGYts-21">
          <mxGeometry relative="1" as="geometry" />
        </mxCell>
        <mxCell id="pAw7oPJRyMl5xoIWGYts-41" value="&lt;span style=&quot;text-wrap-mode: nowrap;&quot;&gt;&amp;nbsp;Modellentwicklung&amp;nbsp;&lt;/span&gt;&lt;br style=&quot;text-wrap-mode: nowrap;&quot;&gt;&lt;span style=&quot;text-wrap-mode: nowrap;&quot;&gt;&amp;nbsp;(NLP-Modell für Artikel und&amp;nbsp;&lt;/span&gt;&lt;br style=&quot;text-wrap-mode: nowrap;&quot;&gt;&lt;span style=&quot;text-wrap-mode: nowrap;&quot;&gt;wiederholte Bearbeitungen)&lt;/span&gt;" style="html=1;whiteSpace=wrap;fillColor=#FFFFFF;strokeColor=#000000;strokeWidth=2;" vertex="1" parent="1">
          <mxGeometry x="579" y="670" width="170" height="70" as="geometry" />
        </mxCell>
        <mxCell id="pAw7oPJRyMl5xoIWGYts-42" value="" style="outlineConnect=0;fontColor=#232F3E;gradientColor=none;fillColor=#67AB9F;strokeColor=#FFFFFF;dashed=0;verticalLabelPosition=bottom;verticalAlign=top;align=center;html=1;fontSize=12;fontStyle=0;aspect=fixed;pointerEvents=1;shape=mxgraph.aws4.opensearch_dashboards;strokeWidth=2;" vertex="1" parent="1">
          <mxGeometry x="617.73" y="825" width="92.54" height="70" as="geometry" />
        </mxCell>
        <mxCell id="pAw7oPJRyMl5xoIWGYts-43" value="" style="endArrow=classic;html=1;rounded=0;entryX=0.5;entryY=0;entryDx=0;entryDy=0;exitX=0.5;exitY=1;exitDx=0;exitDy=0;" edge="1" parent="1" source="pAw7oPJRyMl5xoIWGYts-11" target="pAw7oPJRyMl5xoIWGYts-17">
          <mxGeometry width="50" height="50" relative="1" as="geometry">
            <mxPoint x="240" y="360" as="sourcePoint" />
            <mxPoint x="290" y="310" as="targetPoint" />
          </mxGeometry>
        </mxCell>
        <mxCell id="pAw7oPJRyMl5xoIWGYts-45" value="" style="shape=image;imageAspect=0;aspect=fixed;verticalLabelPosition=bottom;verticalAlign=top;image=https://imgs.search.brave.com/fNQo93FlheKhhZMm0KSI9HLuJ441h8V4XECwUYdWDdo/rs:fit:500:0:0:0/g:ce/aHR0cHM6Ly93d3cu/Y2lzY29pbnZlc3Rt/ZW50cy5jb20vYXNz/ZXRzL2xvZ29zL2dy/b3EtbG9nby5wbmc;" vertex="1" parent="1">
          <mxGeometry x="381.5" y="363" width="84.99" height="31.11" as="geometry" />
        </mxCell>
        <mxCell id="pAw7oPJRyMl5xoIWGYts-46" value="" style="shape=image;imageAspect=0;aspect=fixed;verticalLabelPosition=bottom;verticalAlign=top;image=data:image/png,iVBORw0KGgoAAAANSUhEUgAAAGoAAABFCAIAAAAtueQjAAAACXBIWXMAAAQYAAAEGAF0vYLEAAAHX0lEQVR42u2ca2wUVRSA770z+96y290+tg/YttCCQRF8BBFBjLyUoLxiUIIQf/j6I39I5AcxEhPBxETiL4IxJj4wimCs4qPEACWCgKSQaqE8ug3dUvraF92Z3Zm5xx8rpjs7bac73S0t92SSTU5m9s58995zzj33zOBp+/YgJtkKn/pJAMgIGA6dYkLYjPF/+ByE2/vEshmeYsZFpzTfCu7881iSUh4hxGNc6ymaXVLGuOgUISFyCCGECGNhRBi+sXAdg0WUpUs3OyiMwpNYTOb7fBUE4xHP7IyGb4VDMMhNmXnTLF8FT3LbkYAg0N8buh0brLRbbTOLfVjHbY8CX0QU3mj4PihL+v9lcZHvszWbCOaGP02myvajPzT2dg1W2gj5cuWGRyqrcoovIcuv1B+4lhAHK4s5/tD6rX63ZyzxIYTRaHsE6x0DCUXGah2SFSXXs0ymlAKomqYIJWSZ2T7mOiaN6zBxZJFvqqjIQ8w/1BzqvS4MMHba+Dw2xwfPrB/qAgrw0cmGvS1NjF22k3eCLo7BgNMbjefNlWCMnyif1pUQlUGPUmmx+6a4c920lTctKJsq9d6EQdxmO12ljoIJg48jZNvCpdsWLh0HI0XI7pXrmOdlgQvDx4ThY/gYvsm26jAuMlVeq//6fHpiaigxYfLx08/P99dk3ZwgSz2xaEOg9USwPRAJxcS4zri+gOM/Wf1inbfkrov7kpT260tDWQhAtusYUZaOXG5+/8zxHimZ1V9ggysofuJOnGAk9ObPBy9EQzDJJm8e5Hp/79b6A+0JYRLavtTyXBlihW7cW0VE4a1fD407u1zh4zDZ9dSzmnnw9nD/9uNHogay8xTgi7/+uBgLa4QRGM+wOXwmi4PT2HWJAPwZ7lUA7nZ8GOMat1ebLMK8sSTR9f6eTy9fzBzUi7wl7yxZVV3oxRhrbtWcbr+2peHwBMCXO6EAJ6609GbsAq6prN6zfK2F54f1svd82CwrynfXW1TKaqttx+IVw7Njqw6EELra39MhxFXKrbPmFhvLet4r+HoioRhNczsFhJtbWUUwZvhGCoYAbkbDKtvv5fnp3nErrZtI+ChCHQMxldLndNl4E8Ona/iF0otUEEIuiwWN08ydeLYvkRFvO03mcbyfCYaPZmRICB6/scfSpQwfw8fwMXxMGD6Gj+Fj+JjkDx8wfLol8w2gJFV0EuQIVuXmAJBClTw8auYOCEVINtZ0NvjsGQmiuJTUea2Z41WbYAoCRc4HPp7jSPqGhwyQ79diCMbldodKGUuIcX0vcbmsNitOa1QBiAoDeZj9DovVkj7+EkAHxHi+R5/T5uDS7yOsKDciIT3X2niTy2pTKZv6uinQXOMrtjud6WZHAuiORCDP+NwFUxzp9xFR5LZbnaBv8M4sLFIpG4OBhCTnGp/LYi2xO1XK+vZWI5Y3G3wzvMWlJovK8X51+aKkjIyAELKk3K9StgnxpmB7zr0kIQvLpqqU5/u6W3tu5RWfheOXVFarlGdCvb9dah6x1AwjVOMrc3O8ygbtPXsimpGIH2N8GD9WWW1Ot7xhRd5/7qSUbdFINvg4QpZNn2XNsCNvn/792NVLI07hWm/pQxkViafDfbuO1kdyTHBOxbQqm12lPBwMfNj4W1LJxnpwrtXLrIRsmHl/yWh2moudU5putAXit9OiP6CH2lo7u4ISACJEkKVoMgEIWdP3/zlCPCbzT4Erqljx71j4l9ZmKooKwQpALJmIph+RpHg8cPVKenHQbLdn2fRZOvd5zRxnB9QQDKj0Z/u6G6+1QFJSCJGAZjYdkxI23sTdGbmd0fDhay0yQJaFDRae3zZ/ybkj36g2rQlC3wYDBzraBgBSvbn/kcUbH16gilgXVNU+V+E/2NGmmtcBYeDdC6eFplMiaFTyEIyKOUOVGBjjFffN+fLyxfORflXTTdHw+XMnhLNU1Jo+ft5Uv35LTYbTy37R9mBZ5Y55j2OtyhseYxchXkK8hGiOCxPHbV+0vCbDD6aexI6x587lg49CTGRqNL4psFh3P7XKo7U1TBByYI12vYTYCNGsMSJGenLjvPk7584fyWBr630Frs9WvVCtRTDXMrOk7NMV6wrHYofTUMqAI+SVRxd9vnSNx2yBIV0tHqo0zF9YdHDty5ur6qS8pxzmVfh/XPvy0yXlsrFyP6MZF4zx4pq6xpde/+TJZ+cUevsolQAoAkAodQxv04sczveWrzm2dsurdQ8kCYkDVWC4B4KMI2updHv2P7/p59UvbvDXRhASAVJND3Fot4an7dvj4vgDqzfOLik33qv9YrwnFhWTCarQVAxYOsVdoe9LHxKlndFwVIhLUpIOEYgRQlQd4rDa6ox9iwUhJMpyZyx8WxAURdbsPoJxbWm5w/zfYuHsjbbNv34npL5hNYbisdo9Vnt215oI8bs9yMBXVbIWK8/XFBahwrxP3ntcGD5jOUSEkAT0QlcwluMF02SSf7q7FLiDL07p9lO/U0ZFf8SGEPf/1yNT6wQGJQv5F5gw+GXIZ067AAAAAElFTkSuQmCC;" vertex="1" parent="1">
          <mxGeometry x="129.27999999999997" y="60" width="61.45" height="40" as="geometry" />
        </mxCell>
      </root>
    </mxGraphModel>
  </diagram>
</mxfile>
